{
  "accessors": [
    {
      "bufferView": 2,
      "componentType": 5126,
      "count": 65532,
      "max": [
        0.1566949337720871,
        0.40282005071640015,
        1.0822588205337524
      ],
      "min": [
        -0.1559363603591919,
        -0.4791075885295868,
        0.6498488187789917
      ],
      "type": "VEC3"
    },
    {
      "bufferView": 2,
      "byteOffset": 786384,
      "componentType": 5126,
      "count": 65532,
      "max": [
        1.0,
        1.0,
        1.0
      ],
      "min": [
        -1.0,
        -1.0,
        -1.0
      ],
      "type": "VEC3"
    },
    {
      "bufferView": 3,
      "componentType": 5126,
      "count": 65532,
      "max": [
        1.0,
        1.0,
        1.0,
        1.0
      ],
      "min": [
        -1.0,
        -1.0,
        -1.0,
        -1.0
      ],
      "type": "VEC4"
    },
    {
      "bufferView": 1,
      "componentType": 5126,
      "count": 65532,
      "max": [
        0.9962819814682007,
        0.990401029586792
      ],
      "min": [
        0.04496299847960472,
        0.002580000087618828
      ],
      "type": "VEC2"
    },
    {
      "bufferView": 0,
      "componentType": 5125,
      "count": 97716,
      "type": "SCALAR"
    },
    {
      "bufferView": 2,
      "byteOffset": 1572768,
      "componentType": 5126,
      "count": 65532,
      "max": [
        0.16642294824123383,
        0.36891481280326843,
        1.0913875102996826
      ],
      "min": [
        -0.165874645113945,
        -0.16033630073070526,
        0.6530239582061768
      ],
      "type": "VEC3"
    },
    {
      "bufferView": 2,
      "byteOffset": 2359152,
      "componentType": 5126,
      "count": 65532,
      "max": [
        1.0,
        1.0,
        1.0
      ],
      "min": [
        -1.0,
        -1.0,
        -1.0
      ],
      "type": "VEC3"
    },
    {
      "bufferView": 3,
      "byteOffset": 1048512,
      "componentType": 5126,
      "count": 65532,
      "max": [
        1.0,
        1.0,
        1.0,
        1.0
      ],
      "min": [
        -1.0,
        -1.0,
        -1.0,
        -1.0
      ],
      "type": "VEC4"
    },
    {
      "bufferView": 1,
      "byteOffset": 524256,
      "componentType": 5126,
      "count": 65532,
      "max": [
        0.9962819814682007,
        0.9635419845581055
      ],
      "min": [
        0.04502300173044205,
        0.002580000087618828
      ],
      "type": "VEC2"
    },
    {
      "bufferView": 0,
      "byteOffset": 390864,
      "componentType": 5125,
      "count": 98316,
      "type": "SCALAR"
    },
    {
      "bufferView": 2,
      "byteOffset": 3145536,
      "componentType": 5126,
      "count": 10255,
      "max": [
        0.1617843061685562,
        0.36646318435668945,
        1.0913875102996826
      ],
      "min": [
        -0.1460660696029663,
        -0.0038196309469640255,
        0.7672985196113586
      ],
      "type": "VEC3"
    },
    {
      "bufferView": 2,
      "byteOffset": 3268596,
      "componentType": 5126,
      "count": 10255,
      "max": [
        1.0,
        1.0,
        1.0
      ],
      "min": [
        -1.0,
        -1.0,
        -1.0
      ],
      "type": "VEC3"
    },
    {
      "bufferView": 3,
      "byteOffset": 2097024,
      "componentType": 5126,
      "count": 10255,
      "max": [
        1.0,
        1.0,
        0.7728049159049988,
        1.0
      ],
      "min": [
        -0.9999991655349731,
        -0.9490534663200378,
        -0.8872655630111694,
        -1.0
      ],
      "type": "VEC4"
    },
    {
      "bufferView": 1,
      "byteOffset": 1048512,
      "componentType": 5126,
      "count": 10255,
      "max": [
        0.9941210150718689,
        0.6521379947662354
      ],
      "min": [
        0.6194310188293457,
        0.15411299467086792
      ],
      "type": "VEC2"
    },
    {
      "bufferView": 0,
      "byteOffset": 784128,
      "componentType": 5125,
      "count": 15384,
      "type": "SCALAR"
    },
    {
      "bufferView": 2,
      "byteOffset": 3391656,
      "componentType": 5126,
      "count": 65532,
      "max": [
        0.13952194154262543,
        1.1272441148757935,
        1.1607121229171753
      ],
      "min": [
        -0.13952194154262543,
        -1.064205288887024,
        -0.011326896958053112
      ],
      "type": "VEC3"
    },
    {
      "bufferView": 2,
      "byteOffset": 4178040,
      "componentType": 5126,
      "count": 65532,
      "max": [
        1.0,
        1.0,
        1.0
      ],
      "min": [
        -1.0,
        -1.0,
        -1.0
      ],
      "type": "VEC3"
    },
    {
      "bufferView": 3,
      "byteOffset": 2261104,
      "componentType": 5126,
      "count": 65532,
      "max": [
        1.0,
        1.0,
        0.999474287033081,
        1.0
      ],
      "min": [
        -1.0,
        -1.0,
        -1.0,
        -1.0
      ],
      "type": "VEC4"
    },
    {
      "bufferView": 1,
      "byteOffset": 1130552,
      "componentType": 5126,
      "count": 65532,
      "max": [
        0.9930620193481445,
        0.9916110038757324
      ],
      "min": [
        0.006297999992966652,
        0.005107999779284
      ],
      "type": "VEC2"
    },
    {
      "bufferView": 0,
      "byteOffset": 845664,
      "componentType": 5125,
      "count": 183141,
      "type": "SCALAR"
    },
    {
      "bufferView": 2,
      "byteOffset": 4964424,
      "componentType": 5126,
      "count": 23701,
      "max": [
        0.09390868246555328,
        0.6509769558906555,
        1.1591726541519165
      ],
      "min": [
        -0.06063590943813324,
        -1.11238431930542,
        0.7834452390670776
      ],
      "type": "VEC3"
    },
    {
      "bufferView": 2,
      "byteOffset": 5248836,
      "componentType": 5126,
      "count": 23701,
      "max": [
        1.0,
        1.0,
        1.0
      ],
      "min": [
        -1.0,
        -1.0,
        -1.0
      ],
      "type": "VEC3"
    },
    {
      "bufferView": 3,
      "byteOffset": 3309616,
      "componentType": 5126,
      "count": 23701,
      "max": [
        1.0,
        1.0,
        1.0,
        1.0
      ],
      "min": [
        -1.0,
        -1.0,
        -1.0,
        -1.0
      ],
      "type": "VEC4"
    },
    {
      "bufferView": 1,
      "byteOffset": 1654808,
      "componentType": 5126,
      "count": 23701,
      "max": [
        0.9919840097427368,
        0.9927800297737122
      ],
      "min": [
        0.02950499951839447,
        0.03205699846148491
      ],
      "type": "VEC2"
    },
    {
      "bufferView": 0,
      "byteOffset": 1578228,
      "componentType": 5125,
      "count": 35643,
      "type": "SCALAR"
    }
  ],
  "asset": {
    "extras": {
      "author": "artssionate (https://sketchfab.com/artssionate)",
      "license": "CC-BY-NC-4.0 (http://creativecommons.org/licenses/by-nc/4.0/)",
      "source": "https://sketchfab.com/3d-models/high-poly-pbr-revolvergun-b9fc91252ff54e79a1743a0b16ea211c",
      "title": "High Poly PBR Revolver/Gun"
    },
    "generator": "Sketchfab-12.68.0",
    "version": "2.0"
  },
  "bufferViews": [
    {
      "buffer": 0,
      "byteLength": 1720800,
      "name": "floatBufferViews",
      "target": 34963
    },
    {
      "buffer": 0,
      "byteLength": 1844416,
      "byteOffset": 1720800,
      "byteStride": 8,
      "name": "floatBufferViews",
      "target": 34962
    },
    {
      "buffer": 0,
      "byteLength": 5533248,
      "byteOffset": 3565216,
      "byteStride": 12,
      "name": "floatBufferViews",
      "target": 34962
    },
    {
      "buffer": 0,
      "byteLength": 3688832,
      "byteOffset": 9098464,
      "byteStride": 16,
      "name": "floatBufferViews",
      "target": 34962
    }
  ],
  "buffers": [
    {
      "byteLength": 12787296,
      "uri": "scene.bin"
    }
  ],
  "images": [
    {
      "uri": "textures/revolver_craneFBXASC046002__0_baseColor.png"
    },
    {
      "uri": "textures/revolver_craneFBXASC046002__0_metallicRoughness.png"
    },
    {
      "uri": "textures/revolver_craneFBXASC046002__0_normal.png"
    }
  ],
  "materials": [
    {
      "doubleSided": true,
      "name": "revolver_craneFBXASC046002__0",
      "normalTexture": {
        "index": 2
      },
      "pbrMetallicRoughness": {
        "baseColorTexture": {
          "index": 0
        },
        "metallicRoughnessTexture": {
          "index": 1
        }
      }
    },
    {
      "doubleSided": true,
      "name": "Material.002",
      "normalTexture": {
        "index": 2
      },
      "pbrMetallicRoughness": {
        "baseColorTexture": {
          "index": 0
        },
        "metallicRoughnessTexture": {
          "index": 1
        }
      }
    }
  ],
  "meshes": [
    {
      "name": "revolver_craneFBXASC046002__0",
      "primitives": [
        {
          "attributes": {
            "NORMAL": 1,
            "POSITION": 0,
            "TANGENT": 2,
            "TEXCOORD_0": 3
          },
          "indices": 4,
          "material": 0,
          "mode": 4
        }
      ]
    },
    {
      "name": "revolver_craneFBXASC046002__0",
      "primitives": [
        {
          "attributes": {
            "NORMAL": 6,
            "POSITION": 5,
            "TANGENT": 7,
            "TEXCOORD_0": 8
          },
          "indices": 9,
          "material": 0,
          "mode": 4
        }
      ]
    },
    {
      "name": "revolver_craneFBXASC046002__0",
      "primitives": [
        {
          "attributes": {
            "NORMAL": 11,
            "POSITION": 10,
            "TANGENT": 12,
            "TEXCOORD_0": 13
          },
          "indices": 14,
          "material": 0,
          "mode": 4
        }
      ]
    },
    {
      "name": "revolver_barrelFBXASC046002_Material.002_0",
      "primitives": [
        {
          "attributes": {
            "NORMAL": 16,
            "POSITION": 15,
            "TANGENT": 17,
            "TEXCOORD_0": 18
          },
          "indices": 19,
          "material": 1,
          "mode": 4
        }
      ]
    },
    {
      "name": "revolver_barrelFBXASC046002_Material.002_0",
      "primitives": [
        {
          "attributes": {
            "NORMAL": 21,
            "POSITION": 20,
            "TANGENT": 22,
            "TEXCOORD_0": 23
          },
          "indices": 24,
          "material": 1,
          "mode": 4
        }
      ]
    }
  ],
  "nodes": [
    {
      "children": [
        1
      ],
      "matrix": [
        1.0,
        0.0,
        0.0,
        0.0,
        0.0,
        2.220446049250313e-16,
        -1.0,
        0.0,
        0.0,
        1.0,
        2.220446049250313e-16,
        0.0,
        0.0,
        0.0,
        0.0,
        1.0
      ],
      "name": "Sketchfab_model"
    },
    {
      "children": [
        2
      ],
      "matrix": [
        1.0,
        0.0,
        0.0,
        0.0,
        0.0,
        0.0,
        1.0,
        0.0,
        0.0,
        -1.0,
        0.0,
        0.0,
        0.0,
        0.0,
        0.0,
        1.0
      ],
      "name": "d144b9cea2ee4a73bf5a0ce3b6659232.fbx"
    },
    {
      "children": [
        3,
        6,
        10
      ],
      "name": "RootNode"
    },
    {
      "children": [
        4
      ],
      "matrix": [
        100.0,
        0.0,
        0.0,
        0.0,
        0.0,
        99.99999999999972,
        -7.5497901264043296e-06,
        0.0,
        0.0,
        7.5497901264043296e-06,
        99.99999999999972,
        0.0,
        0.0,
        0.0,
        0.0,
        1.0
      ],
      "name": "Hemi"
    },
    {
      "children": [
        5
      ],
      "matrix": [
        1.0,
        0.0,
        0.0,
        0.0,
        0.0,
        2.220446049250313e-16,
        1.0,
        0.0,
        0.0,
        -1.0,
        2.220446049250313e-16,
        0.0,
        0.0,
        0.0,
        0.0,
        1.0
      ],
      "name": "Object_4"
    },
    {
      "name": "Object_5"
    },
    {
      "children": [
        7,
        8,
        9
      ],
      "matrix": [
        100.0,
        0.0,
        0.0,
        0.0,
        0.0,
        -1.629206793918314e-05,
        -99.99999999999868,
        0.0,
        0.0,
        99.99999999999868,
        -1.629206793918314e-05,
        0.0,
        6.074040412902832,
        60.27246856689453,
        -18.693042755126953,
        1.0
      ],
      "name": "revolver_craneFBXASC046002"
    },
    {
      "mesh": 0,
      "name": "revolver_craneFBXASC046002__0"
    },
    {
      "mesh": 1,
      "name": "revolver_craneFBXASC046002__0"
    },
    {
      "mesh": 2,
      "name": "revolver_craneFBXASC046002__0"
    },
    {
      "children": [
        11,
        12
      ],
      "matrix": [
        100.0,
        0.0,
        0.0,
        0.0,
        0.0,
        -1.629206793918314e-05,
        -99.99999999999868,
        0.0,
        0.0,
        99.99999999999868,
        -1.629206793918314e-05,
        0.0,
        6.074040412902832,
        60.27246856689453,
        -18.693042755126953,
        1.0
      ],
      "name": "revolver_barrelFBXASC046002"
    },
    {
      "mesh": 3,
      "name": "revolver_barrelFBXASC046002_Material.002_0"
    },
    {
      "mesh": 4,
      "name": "revolver_barrelFBXASC046002_Material.002_0"
    }
  ],
  "samplers": [
    {
      "magFilter": 9729,
      "minFilter": 9987,
      "wrapS": 10497,
      "wrapT": 10497
    }
  ],
  "scene": 0,
  "scenes": [
    {
      "name": "Sketchfab_Scene",
      "nodes": [
        0
      ]
    }
  ],
  "textures": [
    {
      "sampler": 0,
      "source": 0
    },
    {
      "sampler": 0,
      "source": 1
    },
    {
      "sampler": 0,
      "source": 2
    }
  ]
}
