{
  "accessors": [
    {
      "bufferView": 2,
      "componentType": 5126,
      "count": 1812,
      "max": [
        5.298273086547852,
        28.129371643066406,
        10.915092468261719
      ],
      "min": [
        -5.298273086547852,
        -28.129371643066406,
        -10.915088653564453
      ],
      "type": "VEC3"
    },
    {
      "bufferView": 2,
      "byteOffset": 21744,
      "componentType": 5126,
      "count": 1812,
      "max": [
        1.0,
        0.9999657869338989,
        1.0
      ],
      "min": [
        -1.0,
        -1.0,
        -0.9999631643295288
      ],
      "type": "VEC3"
    },
    {
      "bufferView": 3,
      "componentType": 5126,
      "count": 1812,
      "max": [
        1.0,
        0.9998988509178162,
        0.9999887347221375,
        1.0
      ],
      "min": [
        -0.9999969005584717,
        -1.0,
        -0.999984860420227,
        -1.0
      ],
      "type": "VEC4"
    },
    {
      "bufferView": 1,
      "componentType": 5126,
      "count": 1812,
      "max": [
        0.9794528484344482,
        0.9862459897994995
      ],
      "min": [
        0.012119594030082226,
        0.46946632862091064
      ],
      "type": "VEC2"
    },
    {
      "bufferView": 0,
      "componentType": 5125,
      "count": 9438,
      "type": "SCALAR"
    }
  ],
  "asset": {
    "extras": {
      "author": "Csaba Baity (tsabszy) (https://sketchfab.com/tsabszy)",
      "license": "CC-BY-4.0 (http://creativecommons.org/licenses/by/4.0/)",
      "source": "https://sketchfab.com/3d-models/jolly-the-shotgun-low-poly-3d-coat-texture-test-7cbc0a5c8e35414a8388b5a1b3a5d5c9",
      "title": "Jolly the Shotgun, Low Poly 3d-Coat texture test"
    },
    "generator": "Sketchfab-17.2.0",
    "version": "2.0"
  },
  "bufferViews": [
    {
      "buffer": 0,
      "byteLength": 37752,
      "name": "floatBufferViews",
      "target": 34963
    },
    {
      "buffer": 0,
      "byteLength": 14496,
      "byteOffset": 37752,
      "byteStride": 8,
      "name": "floatBufferViews",
      "target": 34962
    },
    {
      "buffer": 0,
      "byteLength": 43488,
      "byteOffset": 52248,
      "byteStride": 12,
      "name": "floatBufferViews",
      "target": 34962
    },
    {
      "buffer": 0,
      "byteLength": 28992,
      "byteOffset": 95736,
      "byteStride": 16,
      "name": "floatBufferViews",
      "target": 34962
    }
  ],
  "buffers": [
    {
      "byteLength": 124728,
      "uri": "scene.bin"
    }
  ],
  "extensionsRequired": [
    "KHR_materials_pbrSpecularGlossiness"
  ],
  "extensionsUsed": [
    "KHR_materials_pbrSpecularGlossiness"
  ],
  "images": [
    {
      "uri": "textures/RootNode_diffuse.png"
    },
    {
      "uri": "textures/RootNode_specularGlossiness.png"
    },
    {
      "uri": "textures/RootNode_normal.png"
    },
    {
      "uri": "textures/RootNode_occlusion.png"
    }
  ],
  "materials": [
    {
      "extensions": {
        "KHR_materials_pbrSpecularGlossiness": {
          "diffuseFactor": [
            1.0,
            1.0,
            1.0,
            1.0
          ],
          "diffuseTexture": {
            "index": 0
          },
          "glossinessFactor": 1.0,
          "specularFactor": [
            1.0,
            1.0,
            1.0
          ],
          "specularGlossinessTexture": {
            "index": 1
          }
        }
      },
      "name": "RootNode",
      "normalTexture": {
        "index": 2
      },
      "occlusionTexture": {
        "index": 3
      }
    }
  ],
  "meshes": [
    {
      "name": "Object_0",
      "primitives": [
        {
          "attributes": {
            "NORMAL": 1,
            "POSITION": 0,
            "TANGENT": 2,
            "TEXCOORD_0": 3
          },
          "indices": 4,
          "material": 0,
          "mode": 4
        }
      ]
    }
  ],
  "nodes": [
    {
      "children": [
        1
      ],
      "matrix": [
        1.0,
        0.0,
        0.0,
        0.0,
        0.0,
        2.220446049250313e-16,
        -1.0,
        0.0,
        0.0,
        1.0,
        2.220446049250313e-16,
        0.0,
        0.0,
        0.0,
        0.0,
        1.0
      ],
      "name": "Sketchfab_model"
    },
    {
      "children": [
        2
      ],
      "matrix": [
        1.0,
        0.0,
        0.0,
        0.0,
        0.0,
        0.0,
        1.0,
        0.0,
        0.0,
        -1.0,
        0.0,
        0.0,
        0.0,
        0.0,
        0.0,
        1.0
      ],
      "name": "00744ec4a89544da8508dd8361ee71f0.fbx"
    },
    {
      "children": [
        3
      ],
      "name": "RootNode"
    },
    {
      "children": [
        4
      ],
      "matrix": [
        1.0,
        0.0,
        0.0,
        0.0,
        0.0,
        2.220446049250313e-16,
        -1.0,
        0.0,
        0.0,
        1.0,
        2.220446049250313e-16,
        0.0,
        1.9073486328125e-06,
        0.0,
        0.0,
        1.0
      ],
      "name": "the_jolly"
    },
    {
      "mesh": 0,
      "name": "Object_4"
    }
  ],
  "samplers": [
    {
      "magFilter": 9729,
      "minFilter": 9987,
      "wrapS": 10497,
      "wrapT": 10497
    }
  ],
  "scene": 0,
  "scenes": [
    {
      "name": "Sketchfab_Scene",
      "nodes": [
        0
      ]
    }
  ],
  "textures": [
    {
      "sampler": 0,
      "source": 0
    },
    {
      "sampler": 0,
      "source": 1
    },
    {
      "sampler": 0,
      "source": 2
    },
    {
      "sampler": 0,
      "source": 3
    }
  ]
}
