{
  "accessors": [
    {
      "bufferView": 2,
      "componentType": 5126,
      "count": 4615,
      "max": [
        85.38123321533203,
        28.915220260620117,
        18.216428756713867
      ],
      "min": [
        -85.38123321533203,
        -28.915220260620117,
        -18.216428756713867
      ],
      "type": "VEC3"
    },
    {
      "bufferView": 2,
      "byteOffset": 55380,
      "componentType": 5126,
      "count": 4615,
      "max": [
        1.0,
        1.0,
        1.0
      ],
      "min": [
        -1.0,
        -1.0,
        -1.0
      ],
      "type": "VEC3"
    },
    {
      "bufferView": 3,
      "componentType": 5126,
      "count": 4615,
      "max": [
        1.0,
        1.0,
        1.0,
        1.0
      ],
      "min": [
        -1.0,
        -1.0,
        -1.0,
        -1.0
      ],
      "type": "VEC4"
    },
    {
      "bufferView": 1,
      "componentType": 5126,
      "count": 4615,
      "max": [
        0.9518851041793823,
        0.9877642393112183
      ],
      "min": [
        0.010979244485497475,
        0.014554010704159737
      ],
      "type": "VEC2"
    },
    {
      "bufferView": 1,
      "byteOffset": 36920,
      "componentType": 5126,
      "count": 4615,
      "max": [
        0.98779296875,
        0.9921875
      ],
      "min": [
        0.0078125,
        0.02197265625
      ],
      "type": "VEC2"
    },
    {
      "bufferView": 1,
      "byteOffset": 73840,
      "componentType": 5126,
      "count": 4615,
      "max": [
        0.9518851041793823,
        0.9877642393112183
      ],
      "min": [
        0.010979244485497475,
        0.014554010704159737
      ],
      "type": "VEC2"
    },
    {
      "bufferView": 1,
      "byteOffset": 110760,
      "componentType": 5126,
      "count": 4615,
      "max": [
        0.9518851041793823,
        0.9877642393112183
      ],
      "min": [
        0.010979244485497475,
        0.014554010704159737
      ],
      "type": "VEC2"
    },
    {
      "bufferView": 1,
      "byteOffset": 147680,
      "componentType": 5126,
      "count": 4615,
      "max": [
        0.9518851041793823,
        0.9877642393112183
      ],
      "min": [
        0.010979244485497475,
        0.014554010704159737
      ],
      "type": "VEC2"
    },
    {
      "bufferView": 0,
      "componentType": 5125,
      "count": 7737,
      "type": "SCALAR"
    }
  ],
  "asset": {
    "extras": {
      "author": "MaX3Dd (https://sketchfab.com/MaX3Dd)",
      "license": "CC-BY-4.0 (http://creativecommons.org/licenses/by/4.0/)",
      "source": "https://sketchfab.com/3d-models/weapon-crate-low-poly-pbr-231f85f0e8244c368cd201e3b4feaf31",
      "title": "Weapon Crate Low-poly PBR"
    },
    "generator": "Sketchfab-16.65.0",
    "version": "2.0"
  },
  "bufferViews": [
    {
      "buffer": 0,
      "byteLength": 30948,
      "name": "floatBufferViews",
      "target": 34963
    },
    {
      "buffer": 0,
      "byteLength": 184600,
      "byteOffset": 30948,
      "byteStride": 8,
      "name": "floatBufferViews",
      "target": 34962
    },
    {
      "buffer": 0,
      "byteLength": 110760,
      "byteOffset": 215548,
      "byteStride": 12,
      "name": "floatBufferViews",
      "target": 34962
    },
    {
      "buffer": 0,
      "byteLength": 73840,
      "byteOffset": 326308,
      "byteStride": 16,
      "name": "floatBufferViews",
      "target": 34962
    }
  ],
  "buffers": [
    {
      "byteLength": 400148,
      "uri": "scene.bin"
    }
  ],
  "images": [
    {
      "uri": "textures/Weapon_Crate_baseColor.png"
    },
    {
      "uri": "textures/Weapon_Crate_metallicRoughness.png"
    },
    {
      "uri": "textures/Weapon_Crate_normal.png"
    }
  ],
  "materials": [
    {
      "doubleSided": true,
      "name": "Weapon_Crate",
      "normalTexture": {
        "index": 2
      },
      "occlusionTexture": {
        "index": 1
      },
      "pbrMetallicRoughness": {
        "baseColorTexture": {
          "index": 0
        },
        "metallicRoughnessTexture": {
          "index": 1
        }
      }
    }
  ],
  "meshes": [
    {
      "name": "Weapon_Crate_Weapon_Crate_0",
      "primitives": [
        {
          "attributes": {
            "NORMAL": 1,
            "POSITION": 0,
            "TANGENT": 2,
            "TEXCOORD_0": 3,
            "TEXCOORD_1": 4,
            "TEXCOORD_2": 5,
            "TEXCOORD_3": 6,
            "TEXCOORD_4": 7
          },
          "indices": 8,
          "material": 0,
          "mode": 4
        }
      ]
    }
  ],
  "nodes": [
    {
      "children": [
        1
      ],
      "matrix": [
        1.0,
        0.0,
        0.0,
        0.0,
        0.0,
        2.220446049250313e-16,
        -1.0,
        0.0,
        0.0,
        1.0,
        2.220446049250313e-16,
        0.0,
        0.0,
        0.0,
        0.0,
        1.0
      ],
      "name": "Sketchfab_model"
    },
    {
      "children": [
        2
      ],
      "matrix": [
        0.009999999776482582,
        0.0,
        0.0,
        0.0,
        0.0,
        0.0,
        0.009999999776482582,
        0.0,
        0.0,
        -0.009999999776482582,
        0.0,
        0.0,
        0.0,
        0.0,
        0.0,
        1.0
      ],
      "name": "Weapon_Crate.fbx"
    },
    {
      "children": [
        3
      ],
      "name": "RootNode"
    },
    {
      "children": [
        4
      ],
      "matrix": [
        1.0,
        0.0,
        0.0,
        0.0,
        0.0,
        2.220446049250313e-16,
        -1.0,
        0.0,
        0.0,
        1.0,
        2.220446049250313e-16,
        0.0,
        0.0,
        18.216428756713867,
        0.0,
        1.0
      ],
      "name": "Weapon_Crate"
    },
    {
      "mesh": 0,
      "name": "Weapon_Crate_Weapon_Crate_0"
    }
  ],
  "samplers": [
    {
      "magFilter": 9729,
      "minFilter": 9987,
      "wrapS": 10497,
      "wrapT": 10497
    }
  ],
  "scene": 0,
  "scenes": [
    {
      "name": "Sketchfab_Scene",
      "nodes": [
        0
      ]
    }
  ],
  "textures": [
    {
      "sampler": 0,
      "source": 0
    },
    {
      "sampler": 0,
      "source": 1
    },
    {
      "sampler": 0,
      "source": 2
    }
  ]
}
