{
  "accessors": [
    {
      "bufferView": 2,
      "componentType": 5126,
      "count": 6400,
      "max": [
        0.4063694179058075,
        0.08073825389146805,
        -0.4187217950820923
      ],
      "min": [
        -0.9821375608444214,
        -0.7629949450492859,
        -0.9854763746261597
      ],
      "type": "VEC3"
    },
    {
      "bufferView": 2,
      "byteOffset": 76800,
      "componentType": 5126,
      "count": 6400,
      "max": [
        0.809644341468811,
        0.9180019497871399,
        0.9997764229774475
      ],
      "min": [
        -0.9513973593711853,
        -0.8983640074729919,
        -0.12752284109592438
      ],
      "type": "VEC3"
    },
    {
      "bufferView": 1,
      "componentType": 5126,
      "count": 6400,
      "max": [
        0.855370044708252,
        1.7019867897033691
      ],
      "min": [
        -0.45796865224838257,
        -0.8522396087646484
      ],
      "type": "VEC2"
    },
    {
      "bufferView": 0,
      "componentType": 5125,
      "count": 35904,
      "type": "SCALAR"
    },
    {
      "bufferView": 2,
      "byteOffset": 153600,
      "componentType": 5126,
      "count": 1034,
      "max": [
        0.03171737119555473,
        0.4097566604614258,
        0.050457414239645004
      ],
      "min": [
        -0.03181707486510277,
        -0.41863974928855896,
        -0.0312517024576664
      ],
      "type": "VEC3"
    },
    {
      "bufferView": 2,
      "byteOffset": 166008,
      "componentType": 5126,
      "count": 1034,
      "max": [
        1.0,
        0.9980263710021973,
        0.9999953508377075
      ],
      "min": [
        -1.0,
        -0.9973648190498352,
        -0.999997079372406
      ],
      "type": "VEC3"
    },
    {
      "bufferView": 3,
      "componentType": 5126,
      "count": 1034,
      "max": [
        1.0,
        0.9856401681900024,
        0.9982273578643799,
        1.0
      ],
      "min": [
        -1.0,
        -0.9994955658912659,
        -0.9993283152580261,
        -1.0
      ],
      "type": "VEC4"
    },
    {
      "bufferView": 1,
      "byteOffset": 51200,
      "componentType": 5126,
      "count": 1034,
      "max": [
        0.7128949165344238,
        0.9845632910728455
      ],
      "min": [
        0.0029288497753441334,
        0.0029293145053088665
      ],
      "type": "VEC2"
    },
    {
      "bufferView": 1,
      "byteOffset": 59472,
      "componentType": 5126,
      "count": 1034,
      "max": [
        0.7128949165344238,
        0.9845632910728455
      ],
      "min": [
        0.0029288497753441334,
        0.0029293145053088665
      ],
      "type": "VEC2"
    },
    {
      "bufferView": 1,
      "byteOffset": 67744,
      "componentType": 5126,
      "count": 1034,
      "max": [
        0.7128949165344238,
        0.9845632910728455
      ],
      "min": [
        0.0029288497753441334,
        0.0029293145053088665
      ],
      "type": "VEC2"
    },
    {
      "bufferView": 0,
      "byteOffset": 143616,
      "componentType": 5125,
      "count": 4746,
      "type": "SCALAR"
    },
    {
      "bufferView": 2,
      "byteOffset": 178416,
      "componentType": 5126,
      "count": 857,
      "max": [
        0.02726861648261547,
        0.15634801983833313,
        0.02597791701555252
      ],
      "min": [
        -0.02733004279434681,
        -0.4581241011619568,
        -0.037106551229953766
      ],
      "type": "VEC3"
    },
    {
      "bufferView": 2,
      "byteOffset": 188700,
      "componentType": 5126,
      "count": 857,
      "max": [
        0.9999985098838806,
        0.997437059879303,
        1.0
      ],
      "min": [
        -0.9999996423721313,
        -0.9987920522689819,
        -0.9999731779098511
      ],
      "type": "VEC3"
    },
    {
      "bufferView": 3,
      "byteOffset": 16544,
      "componentType": 5126,
      "count": 857,
      "max": [
        0.9999992251396179,
        0.9822690486907959,
        0.9974052309989929,
        1.0
      ],
      "min": [
        -1.0,
        -0.9994957447052002,
        -0.9993282556533813,
        -1.0
      ],
      "type": "VEC4"
    },
    {
      "bufferView": 1,
      "byteOffset": 76016,
      "componentType": 5126,
      "count": 857,
      "max": [
        0.930520236492157,
        0.9856231212615967
      ],
      "min": [
        0.0029288497753441334,
        0.0025069192051887512
      ],
      "type": "VEC2"
    },
    {
      "bufferView": 1,
      "byteOffset": 82872,
      "componentType": 5126,
      "count": 857,
      "max": [
        0.930520236492157,
        0.9856231212615967
      ],
      "min": [
        0.0029288497753441334,
        0.0025069192051887512
      ],
      "type": "VEC2"
    },
    {
      "bufferView": 1,
      "byteOffset": 89728,
      "componentType": 5126,
      "count": 857,
      "max": [
        0.930520236492157,
        0.9856231212615967
      ],
      "min": [
        0.0029288497753441334,
        0.0025069192051887512
      ],
      "type": "VEC2"
    },
    {
      "bufferView": 0,
      "byteOffset": 162600,
      "componentType": 5125,
      "count": 3822,
      "type": "SCALAR"
    },
    {
      "bufferView": 2,
      "byteOffset": 198984,
      "componentType": 5126,
      "count": 1392,
      "max": [
        0.060635875910520554,
        0.1791614294052124,
        0.09194770455360413
      ],
      "min": [
        -0.06694753468036652,
        -0.17916154861450195,
        -0.12472870945930481
      ],
      "type": "VEC3"
    },
    {
      "bufferView": 2,
      "byteOffset": 215688,
      "componentType": 5126,
      "count": 1392,
      "max": [
        1.0,
        1.0,
        0.9859018921852112
      ],
      "min": [
        -1.0,
        -1.0,
        -0.9754864573478699
      ],
      "type": "VEC3"
    },
    {
      "bufferView": 3,
      "byteOffset": 30256,
      "componentType": 5126,
      "count": 1392,
      "max": [
        1.0,
        1.0,
        1.0,
        1.0
      ],
      "min": [
        -1.0,
        -1.0,
        -0.9125714898109436,
        1.0
      ],
      "type": "VEC4"
    },
    {
      "bufferView": 1,
      "byteOffset": 96584,
      "componentType": 5126,
      "count": 1392,
      "max": [
        0.9925981163978577,
        0.9974762201309204
      ],
      "min": [
        0.0025054814759641886,
        0.0025013680569827557
      ],
      "type": "VEC2"
    },
    {
      "bufferView": 1,
      "byteOffset": 107720,
      "componentType": 5126,
      "count": 1392,
      "max": [
        0.9925981163978577,
        0.9974762201309204
      ],
      "min": [
        0.0025054814759641886,
        0.0025013680569827557
      ],
      "type": "VEC2"
    },
    {
      "bufferView": 1,
      "byteOffset": 118856,
      "componentType": 5126,
      "count": 1392,
      "max": [
        0.9925981163978577,
        0.9974762201309204
      ],
      "min": [
        0.0025054814759641886,
        0.0025013680569827557
      ],
      "type": "VEC2"
    },
    {
      "bufferView": 0,
      "byteOffset": 177888,
      "componentType": 5125,
      "count": 6072,
      "type": "SCALAR"
    },
    {
      "bufferView": 2,
      "byteOffset": 232392,
      "componentType": 5126,
      "count": 2013,
      "max": [
        0.008578739129006863,
        0.16150382161140442,
        0.056459493935108185
      ],
      "min": [
        -0.010879040695726871,
        -0.47420257329940796,
        -0.02591612935066223
      ],
      "type": "VEC3"
    },
    {
      "bufferView": 2,
      "byteOffset": 256548,
      "componentType": 5126,
      "count": 2013,
      "max": [
        0.9996065497398376,
        0.9998760223388672,
        0.9999984502792358
      ],
      "min": [
        -0.9996065497398376,
        -0.9998596906661987,
        -0.9999918341636658
      ],
      "type": "VEC3"
    },
    {
      "bufferView": 3,
      "byteOffset": 52528,
      "componentType": 5126,
      "count": 2013,
      "max": [
        1.0,
        0.9995211958885193,
        0.9998597502708435,
        1.0
      ],
      "min": [
        -1.0,
        -0.9999561905860901,
        -0.9998760223388672,
        -1.0
      ],
      "type": "VEC4"
    },
    {
      "bufferView": 1,
      "byteOffset": 129992,
      "componentType": 5126,
      "count": 2013,
      "max": [
        0.917471170425415,
        0.9727057218551636
      ],
      "min": [
        0.20053918659687042,
        0.002504474250599742
      ],
      "type": "VEC2"
    },
    {
      "bufferView": 1,
      "byteOffset": 146096,
      "componentType": 5126,
      "count": 2013,
      "max": [
        0.917471170425415,
        0.9727057218551636
      ],
      "min": [
        0.20053918659687042,
        0.002504474250599742
      ],
      "type": "VEC2"
    },
    {
      "bufferView": 1,
      "byteOffset": 162200,
      "componentType": 5126,
      "count": 2013,
      "max": [
        0.917471170425415,
        0.9727057218551636
      ],
      "min": [
        0.20053918659687042,
        0.002504474250599742
      ],
      "type": "VEC2"
    },
    {
      "bufferView": 0,
      "byteOffset": 202176,
      "componentType": 5125,
      "count": 9732,
      "type": "SCALAR"
    },
    {
      "bufferView": 2,
      "byteOffset": 280704,
      "componentType": 5126,
      "count": 1226,
      "max": [
        0.00937277264893055,
        0.3097325265407562,
        0.047946806997060776
      ],
      "min": [
        -0.014517387375235558,
        -0.2187860906124115,
        -0.0393662303686142
      ],
      "type": "VEC3"
    },
    {
      "bufferView": 2,
      "byteOffset": 295416,
      "componentType": 5126,
      "count": 1226,
      "max": [
        0.9996028542518616,
        0.9995403289794922,
        0.9999698400497437
      ],
      "min": [
        -0.9996035099029541,
        -0.9999096393585205,
        -0.9999983310699463
      ],
      "type": "VEC3"
    },
    {
      "bufferView": 3,
      "byteOffset": 84736,
      "componentType": 5126,
      "count": 1226,
      "max": [
        0.9999995231628418,
        0.999556839466095,
        0.9994473457336426,
        1.0
      ],
      "min": [
        -0.9999975562095642,
        -0.9995657205581665,
        -0.999913215637207,
        -1.0
      ],
      "type": "VEC4"
    },
    {
      "bufferView": 1,
      "byteOffset": 178304,
      "componentType": 5126,
      "count": 1226,
      "max": [
        0.917471170425415,
        0.9727057218551636
      ],
      "min": [
        0.20053918659687042,
        0.057635463774204254
      ],
      "type": "VEC2"
    },
    {
      "bufferView": 1,
      "byteOffset": 188112,
      "componentType": 5126,
      "count": 1226,
      "max": [
        0.917471170425415,
        0.9727057218551636
      ],
      "min": [
        0.20053918659687042,
        0.057635463774204254
      ],
      "type": "VEC2"
    },
    {
      "bufferView": 1,
      "byteOffset": 197920,
      "componentType": 5126,
      "count": 1226,
      "max": [
        0.917471170425415,
        0.9727057218551636
      ],
      "min": [
        0.20053918659687042,
        0.057635463774204254
      ],
      "type": "VEC2"
    },
    {
      "bufferView": 0,
      "byteOffset": 241104,
      "componentType": 5125,
      "count": 5892,
      "type": "SCALAR"
    }
  ],
  "asset": {
    "extras": {
      "author": "Andrewlxlxl99 (https://sketchfab.com/Andrewlxlxl99)",
      "license": "CC-BY-4.0 (http://creativecommons.org/licenses/by/4.0/)",
      "source": "https://sketchfab.com/3d-models/katanas-faf3427097d84f69851ee507a2f8eff9",
      "title": "Katanas"
    },
    "generator": "Sketchfab-14.20.0",
    "version": "2.0"
  },
  "bufferViews": [
    {
      "buffer": 0,
      "byteLength": 264672,
      "name": "floatBufferViews",
      "target": 34963
    },
    {
      "buffer": 0,
      "byteLength": 207728,
      "byteOffset": 264672,
      "byteStride": 8,
      "name": "floatBufferViews",
      "target": 34962
    },
    {
      "buffer": 0,
      "byteLength": 310128,
      "byteOffset": 472400,
      "byteStride": 12,
      "name": "floatBufferViews",
      "target": 34962
    },
    {
      "buffer": 0,
      "byteLength": 104352,
      "byteOffset": 782528,
      "byteStride": 16,
      "name": "floatBufferViews",
      "target": 34962
    }
  ],
  "buffers": [
    {
      "byteLength": 886880,
      "uri": "scene.bin"
    }
  ],
  "images": [
    {
      "uri": "textures/Sign_baseColor.jpeg"
    },
    {
      "uri": "textures/SekiroCatanMat_baseColor.png"
    },
    {
      "uri": "textures/SekiroCatanMat_metallicRoughness.png"
    },
    {
      "uri": "textures/SekiroCatanMat_normal.png"
    }
  ],
  "materials": [
    {
      "doubleSided": true,
      "name": "Sign",
      "pbrMetallicRoughness": {
        "baseColorTexture": {
          "index": 0
        },
        "metallicFactor": 0.0,
        "roughnessFactor": 0.8211145618000169
      }
    },
    {
      "doubleSided": true,
      "name": "SekiroCatanMat",
      "normalTexture": {
        "index": 3
      },
      "pbrMetallicRoughness": {
        "baseColorTexture": {
          "index": 1
        },
        "metallicRoughnessTexture": {
          "index": 2
        }
      }
    }
  ],
  "meshes": [
    {
      "name": "Plane_Sign_0",
      "primitives": [
        {
          "attributes": {
            "NORMAL": 1,
            "POSITION": 0,
            "TEXCOORD_0": 2
          },
          "indices": 3,
          "material": 0,
          "mode": 4
        }
      ]
    },
    {
      "name": "Blade.001_SekiroCatanMat_0",
      "primitives": [
        {
          "attributes": {
            "NORMAL": 5,
            "POSITION": 4,
            "TANGENT": 6,
            "TEXCOORD_0": 7,
            "TEXCOORD_1": 8,
            "TEXCOORD_2": 9
          },
          "indices": 10,
          "material": 1,
          "mode": 4
        }
      ]
    },
    {
      "name": "Blade.003_SekiroCatanMat_0",
      "primitives": [
        {
          "attributes": {
            "NORMAL": 12,
            "POSITION": 11,
            "TANGENT": 13,
            "TEXCOORD_0": 14,
            "TEXCOORD_1": 15,
            "TEXCOORD_2": 16
          },
          "indices": 17,
          "material": 1,
          "mode": 4
        }
      ]
    },
    {
      "name": "podstavLP.001_SekiroCatanMat_0",
      "primitives": [
        {
          "attributes": {
            "NORMAL": 19,
            "POSITION": 18,
            "TANGENT": 20,
            "TEXCOORD_0": 21,
            "TEXCOORD_1": 22,
            "TEXCOORD_2": 23
          },
          "indices": 24,
          "material": 1,
          "mode": 4
        }
      ]
    },
    {
      "name": "Scrab.001_SekiroCatanMat_0",
      "primitives": [
        {
          "attributes": {
            "NORMAL": 26,
            "POSITION": 25,
            "TANGENT": 27,
            "TEXCOORD_0": 28,
            "TEXCOORD_1": 29,
            "TEXCOORD_2": 30
          },
          "indices": 31,
          "material": 1,
          "mode": 4
        }
      ]
    },
    {
      "name": "Scrab.005_SekiroCatanMat_0",
      "primitives": [
        {
          "attributes": {
            "NORMAL": 33,
            "POSITION": 32,
            "TANGENT": 34,
            "TEXCOORD_0": 35,
            "TEXCOORD_1": 36,
            "TEXCOORD_2": 37
          },
          "indices": 38,
          "material": 1,
          "mode": 4
        }
      ]
    }
  ],
  "nodes": [
    {
      "children": [
        1
      ],
      "matrix": [
        1.0,
        0.0,
        0.0,
        0.0,
        0.0,
        2.220446049250313e-16,
        -1.0,
        0.0,
        0.0,
        1.0,
        2.220446049250313e-16,
        0.0,
        0.0,
        0.0,
        0.0,
        1.0
      ],
      "name": "Sketchfab_model"
    },
    {
      "children": [
        2
      ],
      "matrix": [
        0.009999999776482582,
        0.0,
        0.0,
        0.0,
        0.0,
        0.0,
        0.009999999776482582,
        0.0,
        0.0,
        -0.009999999776482582,
        0.0,
        0.0,
        0.0,
        0.0,
        0.0,
        1.0
      ],
      "name": "912b3506af0f4fdba4d0c4a5e9d2f1f7.fbx"
    },
    {
      "children": [
        3,
        5,
        7,
        9,
        11,
        13
      ],
      "name": "RootNode"
    },
    {
      "children": [
        4
      ],
      "matrix": [
        77.85468829850676,
        34.71925810022285,
        52.28021257524175,
        0.0,
        37.40077665832777,
        41.22701834557472,
        -83.07535653662602,
        0.0,
        -50.39672028313193,
        84.2312654262285,
        19.111894448222667,
        0.0,
        9.04232406616211,
        34.00395584106445,
        1.4255736857649026e-07,
        1.0
      ],
      "name": "Plane"
    },
    {
      "mesh": 0,
      "name": "Plane_Sign_0"
    },
    {
      "children": [
        6
      ],
      "matrix": [
        -77.1638510392347,
        63.60567187025489,
        -0.2388992453244783,
        0.0,
        1.5841980653505547,
        1.5463833524464308,
        -99.97549970315717,
        0.0,
        -63.58639399367936,
        -77.14873030389774,
        -2.200888769799092,
        0.0,
        4.4343743324279785,
        -36.02717971801758,
        2.1271378993988037,
        1.0
      ],
      "name": "Blade.001"
    },
    {
      "mesh": 1,
      "name": "Blade.001_SekiroCatanMat_0"
    },
    {
      "children": [
        8
      ],
      "matrix": [
        -26.491214821808384,
        96.35840356303494,
        3.6432952183558633,
        0.0,
        -7.243009629703838,
        1.7791773675626659,
        -99.72148647747754,
        0.0,
        -96.15485306298362,
        -26.681317429753236,
        6.507922750597475,
        0.0,
        -8.655698776245117,
        -52.382080078125,
        -23.98123550415039,
        1.0
      ],
      "name": "Blade.003"
    },
    {
      "mesh": 2,
      "name": "Blade.003_SekiroCatanMat_0"
    },
    {
      "children": [
        10
      ],
      "matrix": [
        100.0,
        0.0,
        0.0,
        0.0,
        0.0,
        -1.629206793918314e-05,
        -99.99999999999868,
        0.0,
        0.0,
        99.99999999999868,
        -1.629206793918314e-05,
        0.0,
        2.7370829582214355,
        -41.93783187866211,
        -1.4423560060095042e-05,
        1.0
      ],
      "name": "podstavLP.001"
    },
    {
      "mesh": 3,
      "name": "podstavLP.001_SekiroCatanMat_0"
    },
    {
      "children": [
        12
      ],
      "matrix": [
        -84.00275395690468,
        54.253332230066654,
        -0.33655547796347385,
        0.0,
        -0.6147199715472469,
        -1.5720495393683072,
        -99.98576051359173,
        0.0,
        -54.25089765303875,
        -83.98872352243403,
        1.6540709750843132,
        0.0,
        0.9935026168823242,
        -40.01451110839844,
        -11.584155082702637,
        1.0
      ],
      "name": "Scrab.001"
    },
    {
      "mesh": 4,
      "name": "Scrab.001_SekiroCatanMat_0"
    },
    {
      "children": [
        14
      ],
      "matrix": [
        -26.67174072679232,
        83.6405906606849,
        3.5136980471889037,
        0.0,
        -2.640753027239246,
        2.8452751504915867,
        -87.77475187204702,
        0.0,
        -83.67270106482876,
        -26.751303457627007,
        1.6501797678007761,
        0.0,
        -5.748231887817383,
        -52.988677978515625,
        10.995454788208008,
        1.0
      ],
      "name": "Scrab.005"
    },
    {
      "mesh": 5,
      "name": "Scrab.005_SekiroCatanMat_0"
    }
  ],
  "samplers": [
    {
      "magFilter": 9729,
      "minFilter": 9987,
      "wrapS": 10497,
      "wrapT": 10497
    }
  ],
  "scene": 0,
  "scenes": [
    {
      "name": "Sketchfab_Scene",
      "nodes": [
        0
      ]
    }
  ],
  "textures": [
    {
      "sampler": 0,
      "source": 0
    },
    {
      "sampler": 0,
      "source": 1
    },
    {
      "sampler": 0,
      "source": 2
    },
    {
      "sampler": 0,
      "source": 3
    }
  ]
}
