{
  "accessors": [
    {
      "bufferView": 2,
      "componentType": 5126,
      "count": 4041,
      "max": [
        0.03918924182653427,
        -0.029017217457294464,
        0.1318214237689972
      ],
      "min": [
        -0.012941718101501465,
        -0.7589206695556641,
        -0.081626757979393
      ],
      "type": "VEC3"
    },
    {
      "bufferView": 2,
      "byteOffset": 48492,
      "componentType": 5126,
      "count": 4041,
      "max": [
        0.9999849200248718,
        0.9999845623970032,
        0.999984860420227
      ],
      "min": [
        -0.9999847412109375,
        -0.999984860420227,
        -0.9999847412109375
      ],
      "type": "VEC3"
    },
    {
      "bufferView": 1,
      "componentType": 5126,
      "count": 4041,
      "max": [
        0.99658203125,
        0.9968624114990234
      ],
      "min": [
        0.00299835205078125,
        0.00341796875
      ],
      "type": "VEC2"
    },
    {
      "bufferView": 1,
      "byteOffset": 32328,
      "componentType": 5126,
      "count": 4041,
      "max": [
        1.0,
        0.535888671875
      ],
      "min": [
        0.0,
        0.46435546875
      ],
      "type": "VEC2"
    },
    {
      "bufferView": 1,
      "byteOffset": 64656,
      "componentType": 5126,
      "count": 4041,
      "max": [
        1.0,
        0.646240234375
      ],
      "min": [
        0.0,
        0.35400390625
      ],
      "type": "VEC2"
    },
    {
      "bufferView": 0,
      "componentType": 5125,
      "count": 15234,
      "type": "SCALAR"
    }
  ],
  "asset": {
    "extras": {
      "author": "Wicked_Vixx (https://sketchfab.com/tylukex)",
      "license": "CC-BY-4.0 (http://creativecommons.org/licenses/by/4.0/)",
      "source": "https://sketchfab.com/3d-models/lever-action-shotgun-fortnite-pbr-6af7d2da42724bfd94a6196a2ee1bcc9",
      "title": "Lever action shotgun - Fortnite (PBR)"
    },
    "generator": "Sketchfab-16.56.0",
    "version": "2.0"
  },
  "bufferViews": [
    {
      "buffer": 0,
      "byteLength": 60936,
      "name": "floatBufferViews",
      "target": 34963
    },
    {
      "buffer": 0,
      "byteLength": 96984,
      "byteOffset": 60936,
      "byteStride": 8,
      "name": "floatBufferViews",
      "target": 34962
    },
    {
      "buffer": 0,
      "byteLength": 96984,
      "byteOffset": 157920,
      "byteStride": 12,
      "name": "floatBufferViews",
      "target": 34962
    }
  ],
  "buffers": [
    {
      "byteLength": 254904,
      "uri": "scene.bin"
    }
  ],
  "images": [
    {
      "uri": "textures/MI_Sawed_Shotgun_baseColor.png"
    }
  ],
  "materials": [
    {
      "doubleSided": true,
      "name": "MI_Sawed_Shotgun",
      "pbrMetallicRoughness": {
        "baseColorTexture": {
          "index": 0
        },
        "metallicFactor": 0.30933427606636515,
        "roughnessFactor": 0.3737123770281967
      }
    }
  ],
  "meshes": [
    {
      "name": "Object_MI_Sawed_Shotgun_0",
      "primitives": [
        {
          "attributes": {
            "NORMAL": 1,
            "POSITION": 0,
            "TEXCOORD_0": 2,
            "TEXCOORD_1": 3,
            "TEXCOORD_2": 4
          },
          "indices": 5,
          "material": 0,
          "mode": 4
        }
      ]
    }
  ],
  "nodes": [
    {
      "children": [
        1
      ],
      "matrix": [
        1.0,
        0.0,
        0.0,
        0.0,
        0.0,
        2.220446049250313e-16,
        -1.0,
        0.0,
        0.0,
        1.0,
        2.220446049250313e-16,
        0.0,
        0.0,
        0.0,
        0.0,
        1.0
      ],
      "name": "Sketchfab_model"
    },
    {
      "children": [
        2
      ],
      "matrix": [
        0.009999999776482582,
        0.0,
        0.0,
        0.0,
        0.0,
        0.0,
        0.009999999776482582,
        0.0,
        0.0,
        -0.009999999776482582,
        0.0,
        0.0,
        0.0,
        0.0,
        0.0,
        1.0
      ],
      "name": "7e3f5996f2464620afd4687231232ff7.fbx"
    },
    {
      "children": [
        3
      ],
      "name": "RootNode"
    },
    {
      "children": [
        4
      ],
      "matrix": [
        100.0,
        0.0,
        0.0,
        0.0,
        0.0,
        -1.629206793918314e-05,
        -99.99999999999868,
        0.0,
        0.0,
        99.99999999999868,
        -1.629206793918314e-05,
        0.0,
        0.0,
        0.0,
        0.0,
        1.0
      ],
      "name": "Object"
    },
    {
      "mesh": 0,
      "name": "Object_MI_Sawed_Shotgun_0"
    }
  ],
  "samplers": [
    {
      "magFilter": 9729,
      "minFilter": 9987,
      "wrapS": 10497,
      "wrapT": 10497
    }
  ],
  "scene": 0,
  "scenes": [
    {
      "name": "Sketchfab_Scene",
      "nodes": [
        0
      ]
    }
  ],
  "textures": [
    {
      "sampler": 0,
      "source": 0
    }
  ]
}
